<?xml version="1.0" encoding="us-ascii" standalone="no"?><svg xmlns="http://www.w3.org/2000/svg" xmlns:xlink="http://www.w3.org/1999/xlink" contentStyleType="text/css" height="3128px" preserveAspectRatio="none" style="width:392px;height:3128px;background:#FFFFFF;" version="1.1" viewBox="0 0 392 3128" width="392px" zoomAndPan="magnify"><defs/><g><!--cluster PKG_AUTH--><g id="cluster_PKG_AUTH"><path d="M175.5,830 L339.5,830 A3.75,3.75 0 0 1 342,832.5 L349,849.7988 L373.5,849.7988 A2.5,2.5 0 0 1 376,852.2988 L376,1276.5 A2.5,2.5 0 0 1 373.5,1279 L175.5,1279 A2.5,2.5 0 0 1 173,1276.5 L173,832.5 A2.5,2.5 0 0 1 175.5,830 " fill="#F7F7F7" style="stroke:#999999;stroke-width:1.5;"/><line style="stroke:#999999;stroke-width:1.5;" x1="173" x2="349" y1="849.7988" y2="849.7988"/><text fill="#000000" font-family="Arial" font-size="12" font-weight="bold" lengthAdjust="spacing" textLength="163" x="177" y="843.2559">Authentication &amp; Onboarding</text></g><!--cluster PKG_COURSE--><g id="cluster_PKG_COURSE"><path d="M168.5,6 L371.5,6 A3.75,3.75 0 0 1 374,8.5 L381,25.7988 L381.5,25.7988 A2.5,2.5 0 0 1 384,28.2988 L384,470.5 A2.5,2.5 0 0 1 381.5,473 L168.5,473 A2.5,2.5 0 0 1 166,470.5 L166,8.5 A2.5,2.5 0 0 1 168.5,6 " fill="#F7F7F7" style="stroke:#999999;stroke-width:1.5;"/><line style="stroke:#999999;stroke-width:1.5;" x1="166" x2="381" y1="25.7988" y2="25.7988"/><text fill="#000000" font-family="Arial" font-size="12" font-weight="bold" lengthAdjust="spacing" textLength="202" x="170" y="19.2559">Course &amp; Contribution Management</text></g><!--cluster PKG_SEARCH--><g id="cluster_PKG_SEARCH"><path d="M166.5,1303 L279.5,1303 A3.75,3.75 0 0 1 282,1305.5 L289,1322.7988 L382.5,1322.7988 A2.5,2.5 0 0 1 385,1325.2988 L385,1623.5 A2.5,2.5 0 0 1 382.5,1626 L166.5,1626 A2.5,2.5 0 0 1 164,1623.5 L164,1305.5 A2.5,2.5 0 0 1 166.5,1303 " fill="#F7F7F7" style="stroke:#999999;stroke-width:1.5;"/><line style="stroke:#999999;stroke-width:1.5;" x1="164" x2="289" y1="1322.7988" y2="1322.7988"/><text fill="#000000" font-family="Arial" font-size="12" font-weight="bold" lengthAdjust="spacing" textLength="112" x="168" y="1316.2559">Search &amp; Discovery</text></g><!--cluster PKG_AI--><g id="cluster_PKG_AI"><path d="M170.5,2350 L251.5,2350 A3.75,3.75 0 0 1 254,2352.5 L261,2369.7988 L378.5,2369.7988 A2.5,2.5 0 0 1 381,2372.2988 L381,3118.5 A2.5,2.5 0 0 1 378.5,3121 L170.5,3121 A2.5,2.5 0 0 1 168,3118.5 L168,2352.5 A2.5,2.5 0 0 1 170.5,2350 " fill="#F7F7F7" style="stroke:#999999;stroke-width:1.5;"/><line style="stroke:#999999;stroke-width:1.5;" x1="168" x2="261" y1="2369.7988" y2="2369.7988"/><text fill="#000000" font-family="Arial" font-size="12" font-weight="bold" lengthAdjust="spacing" textLength="80" x="172" y="2363.2559">AI Study Tools</text></g><!--cluster PKG_COMM--><g id="cluster_PKG_COMM"><path d="M168,1650 L319,1650 A3.75,3.75 0 0 1 321.5,1652.5 L328.5,1669.7988 L381,1669.7988 A2.5,2.5 0 0 1 383.5,1672.2988 L383.5,2323.5 A2.5,2.5 0 0 1 381,2326 L168,2326 A2.5,2.5 0 0 1 165.5,2323.5 L165.5,1652.5 A2.5,2.5 0 0 1 168,1650 " fill="#F7F7F7" style="stroke:#999999;stroke-width:1.5;"/><line style="stroke:#999999;stroke-width:1.5;" x1="165.5" x2="328.5" y1="1669.7988" y2="1669.7988"/><text fill="#000000" font-family="Arial" font-size="12" font-weight="bold" lengthAdjust="spacing" textLength="150" x="169.5" y="1663.2559">Community &amp; Gamification</text></g><!--cluster PKG_ADMIN--><g id="cluster_PKG_ADMIN"><path d="M177.5,497 L261.5,497 A3.75,3.75 0 0 1 264,499.5 L271,516.7988 L371.5,516.7988 A2.5,2.5 0 0 1 374,519.2988 L374,803.5 A2.5,2.5 0 0 1 371.5,806 L177.5,806 A2.5,2.5 0 0 1 175,803.5 L175,499.5 A2.5,2.5 0 0 1 177.5,497 " fill="#F7F7F7" style="stroke:#999999;stroke-width:1.5;"/><line style="stroke:#999999;stroke-width:1.5;" x1="175" x2="271" y1="516.7988" y2="516.7988"/><text fill="#000000" font-family="Arial" font-size="12" font-weight="bold" lengthAdjust="spacing" textLength="83" x="179" y="510.2559">Administration</text></g><g id="elem_UC01"><ellipse cx="274.4802" cy="1247.996" fill="#FFFFFF" rx="60.4802" ry="14.496" style="stroke:#666666;stroke-width:0.5;"/><text fill="#000000" font-family="Arial" font-size="11" lengthAdjust="spacing" textLength="84" x="232.4802" y="1249.9894">Register Account</text></g><g id="elem_UC02"><ellipse cx="274.5097" cy="1106.1019" fill="#FFFFFF" rx="66.0097" ry="15.6019" style="stroke:#666666;stroke-width:0.5;"/><text fill="#000000" font-family="Arial" font-size="11" lengthAdjust="spacing" textLength="97" x="226.0097" y="1108.0953">Verify Email via OTP</text></g><g id="elem_UC03"><ellipse cx="274.3115" cy="1038.8623" fill="#FFFFFF" rx="67.3115" ry="15.8623" style="stroke:#666666;stroke-width:0.5;"/><text fill="#000000" font-family="Arial" font-size="11" lengthAdjust="spacing" textLength="100" x="224.3115" y="1040.8557">Login / Logout (JWT)</text></g><g id="elem_UC04"><ellipse cx="274.7336" cy="1184.2467" fill="#FFFFFF" rx="59.2336" ry="14.2467" style="stroke:#666666;stroke-width:0.5;"/><text fill="#000000" font-family="Arial" font-size="11" lengthAdjust="spacing" textLength="81" x="234.2336" y="1186.2401">Reset Password</text></g><g id="elem_UC05"><ellipse cx="274.3559" cy="880.7712" fill="#FFFFFF" rx="79.3559" ry="18.2712" style="stroke:#666666;stroke-width:0.5;"/><text fill="#000000" font-family="Arial" font-size="11" lengthAdjust="spacing" textLength="127" x="210.8559" y="882.7646">Activate Teacher Account</text></g><g id="elem_UC06"><ellipse cx="274.3163" cy="967.9633" fill="#FFFFFF" rx="85.3163" ry="19.4633" style="stroke:#666666;stroke-width:0.5;"/><text fill="#000000" font-family="Arial" font-size="11" lengthAdjust="spacing" textLength="140" x="204.3163" y="969.9567">Import Teacher Roster (CSV)</text></g><g id="elem_UC07"><ellipse cx="274.3231" cy="145.0646" fill="#FFFFFF" rx="70.8231" ry="16.5646" style="stroke:#666666;stroke-width:0.5;"/><text fill="#000000" font-family="Arial" font-size="11" lengthAdjust="spacing" textLength="108" x="220.3231" y="147.058">Upload Official Course</text></g><g id="elem_UC08"><ellipse cx="274.5401" cy="297.908" fill="#FFFFFF" rx="77.5401" ry="17.908" style="stroke:#666666;stroke-width:0.5;"/><text fill="#000000" font-family="Arial" font-size="11" lengthAdjust="spacing" textLength="123" x="213.0401" y="299.9014">Manage Course Versions</text></g><g id="elem_UC09"><ellipse cx="274.3347" cy="213.8669" fill="#FFFFFF" rx="74.8347" ry="17.3669" style="stroke:#666666;stroke-width:0.5;"/><text fill="#000000" font-family="Arial" font-size="11" lengthAdjust="spacing" textLength="117" x="215.8347" y="215.8603">Browse Version History</text></g><g id="elem_UC10"><ellipse cx="274.6382" cy="438.2276" fill="#FFFFFF" rx="81.6382" ry="18.7276" style="stroke:#666666;stroke-width:0.5;"/><text fill="#000000" font-family="Arial" font-size="11" lengthAdjust="spacing" textLength="132" x="208.6382" y="440.2211">Submit Student Contribution</text></g><g id="elem_UC11"><ellipse cx="274.4198" cy="58.984" fill="#FFFFFF" rx="90.4198" ry="20.484" style="stroke:#666666;stroke-width:0.5;"/><text fill="#000000" font-family="Arial" font-size="11" lengthAdjust="spacing" textLength="151" x="198.9198" y="60.9774">Check File Duplicate (SHA-256)</text></g><g id="elem_UC12"><ellipse cx="274.4998" cy="367.8" fill="#FFFFFF" rx="69.4998" ry="16.3" style="stroke:#666666;stroke-width:0.5;"/><text fill="#000000" font-family="Arial" font-size="11" lengthAdjust="spacing" textLength="105" x="221.9998" y="369.7934">Moderate Contribution</text></g><g id="elem_UC13"><ellipse cx="274.7315" cy="1515.8883" fill="#FFFFFF" rx="85.7315" ry="20.8883" style="stroke:#666666;stroke-width:0.5;"/><text fill="#000000" font-family="Arial" font-size="11" lengthAdjust="spacing" textLength="79" x="235.2315" y="1511.5572">Search Courses</text><text fill="#000000" font-family="Arial" font-size="11" lengthAdjust="spacing" textLength="105" x="222.2315" y="1524.2062">(Semantic + Full-Text)</text></g><g id="elem_UC14"><ellipse cx="274.6841" cy="1430.0368" fill="#FFFFFF" rx="68.1841" ry="16.0368" style="stroke:#666666;stroke-width:0.5;"/><text fill="#000000" font-family="Arial" font-size="11" lengthAdjust="spacing" textLength="102" x="223.6841" y="1432.0302">Apply Faceted Filters</text></g><g id="elem_UC15"><ellipse cx="274.6295" cy="1356.8259" fill="#FFFFFF" rx="94.6295" ry="21.3259" style="stroke:#666666;stroke-width:0.5;"/><text fill="#000000" font-family="Arial" font-size="11" lengthAdjust="spacing" textLength="160" x="194.6295" y="1358.8193">Preview Document (PDF Viewer)</text></g><g id="elem_UC16"><ellipse cx="274.4334" cy="1591.1867" fill="#FFFFFF" rx="83.9334" ry="19.1867" style="stroke:#666666;stroke-width:0.5;"/><text fill="#000000" font-family="Arial" font-size="11" lengthAdjust="spacing" textLength="137" x="205.9334" y="1593.1801">Browse Academic Archives</text></g><g id="elem_UC17"><ellipse cx="274.7339" cy="2872.0468" fill="#FFFFFF" rx="75.7339" ry="17.5468" style="stroke:#666666;stroke-width:0.5;"/><text fill="#000000" font-family="Arial" font-size="11" lengthAdjust="spacing" textLength="119" x="215.2339" y="2874.0402">Open RAG Chat Session</text></g><g id="elem_UC18"><ellipse cx="274.3861" cy="2787.7772" fill="#FFFFFF" rx="74.3861" ry="17.2772" style="stroke:#666666;stroke-width:0.5;"/><text fill="#000000" font-family="Arial" font-size="11" lengthAdjust="spacing" textLength="116" x="216.3861" y="2789.7706">Ask Document Question</text></g><g id="elem_UC19"><ellipse cx="274.7339" cy="2704.0468" fill="#FFFFFF" rx="75.7339" ry="17.5468" style="stroke:#666666;stroke-width:0.5;"/><text fill="#000000" font-family="Arial" font-size="11" lengthAdjust="spacing" textLength="119" x="215.2339" y="2706.0402">Navigate to Source Page</text></g><g id="elem_UC20"><ellipse cx="274.5401" cy="3086.908" fill="#FFFFFF" rx="77.5401" ry="17.908" style="stroke:#666666;stroke-width:0.5;"/><text fill="#000000" font-family="Arial" font-size="11" lengthAdjust="spacing" textLength="123" x="213.0401" y="3088.9014">Generate Flashcard Deck</text></g><g id="elem_UC21"><ellipse cx="274.7237" cy="2401.0447" fill="#FFFFFF" rx="80.7237" ry="18.5447" style="stroke:#666666;stroke-width:0.5;"/><text fill="#000000" font-family="Arial" font-size="11" lengthAdjust="spacing" textLength="130" x="209.7237" y="2403.0381">Review Flashcards (SM-2)</text></g><g id="elem_UC22"><ellipse cx="274.3812" cy="2470.9762" fill="#FFFFFF" rx="70.3812" ry="16.4762" style="stroke:#666666;stroke-width:0.5;"/><text fill="#000000" font-family="Arial" font-size="11" lengthAdjust="spacing" textLength="107" x="220.8812" y="2472.9696">Share Flashcard Deck</text></g><g id="elem_UC23"><ellipse cx="274.5633" cy="2938.9127" fill="#FFFFFF" rx="60.0633" ry="14.4127" style="stroke:#666666;stroke-width:0.5;"/><text fill="#000000" font-family="Arial" font-size="11" lengthAdjust="spacing" textLength="83" x="233.0633" y="2940.9061">Generate AI Quiz</text></g><g id="elem_UC24"><ellipse cx="274.6218" cy="3018.1244" fill="#FFFFFF" rx="68.6218" ry="16.1244" style="stroke:#666666;stroke-width:0.5;"/><text fill="#000000" font-family="Arial" font-size="11" lengthAdjust="spacing" textLength="103" x="223.1218" y="3020.1178">Take Exam Simulation</text></g><g id="elem_UC25"><ellipse cx="274.4198" cy="2630.984" fill="#FFFFFF" rx="90.4198" ry="20.484" style="stroke:#666666;stroke-width:0.5;"/><text fill="#000000" font-family="Arial" font-size="11" lengthAdjust="spacing" textLength="151" x="198.9198" y="2632.9774">Generate Summary &amp; Mind Map</text></g><g id="elem_UC26"><ellipse cx="274.3163" cy="2541.9633" fill="#FFFFFF" rx="85.3163" ry="19.4633" style="stroke:#666666;stroke-width:0.5;"/><text fill="#000000" font-family="Arial" font-size="11" lengthAdjust="spacing" textLength="140" x="204.3163" y="2543.9567">Export Summary or Mind Map</text></g><g id="elem_UC27"><ellipse cx="274.3115" cy="1772.8623" fill="#FFFFFF" rx="67.3115" ry="15.8623" style="stroke:#666666;stroke-width:0.5;"/><text fill="#000000" font-family="Arial" font-size="11" lengthAdjust="spacing" textLength="100" x="224.3115" y="1774.8557">Post Forum Question</text></g><g id="elem_UC28"><ellipse cx="274.3231" cy="1993.0646" fill="#FFFFFF" rx="70.8231" ry="16.5646" style="stroke:#666666;stroke-width:0.5;"/><text fill="#000000" font-family="Arial" font-size="11" lengthAdjust="spacing" textLength="108" x="220.3231" y="1995.058">Reply &amp; Vote on Posts</text></g><g id="elem_UC29"><ellipse cx="274.3549" cy="2063.871" fill="#FFFFFF" rx="84.8549" ry="19.371" style="stroke:#666666;stroke-width:0.5;"/><text fill="#000000" font-family="Arial" font-size="11" lengthAdjust="spacing" textLength="139" x="204.8549" y="2065.8644">Annotate PDF Collaboratively</text></g><g id="elem_UC30"><ellipse cx="274.3861" cy="2289.0772" fill="#FFFFFF" rx="90.8861" ry="20.5772" style="stroke:#666666;stroke-width:0.5;"/><text fill="#000000" font-family="Arial" font-size="11" lengthAdjust="spacing" textLength="152" x="198.3861" y="2291.0706">Receive AI Answer Suggestion</text></g><g id="elem_UC31"><ellipse cx="274.3939" cy="1701.7788" fill="#FFFFFF" rx="84.3939" ry="19.2788" style="stroke:#666666;stroke-width:0.5;"/><text fill="#000000" font-family="Arial" font-size="11" lengthAdjust="spacing" textLength="138" x="205.3939" y="1703.7722">Report Inappropriate Content</text></g><g id="elem_UC32"><ellipse cx="274.288" cy="1925.7576" fill="#FFFFFF" rx="64.288" ry="15.2576" style="stroke:#666666;stroke-width:0.5;"/><text fill="#000000" font-family="Arial" font-size="11" lengthAdjust="spacing" textLength="93" x="227.788" y="1927.751">Earn XP &amp; Level Up</text></g><g id="elem_UC33"><ellipse cx="274.6382" cy="1843.2276" fill="#FFFFFF" rx="81.6382" ry="18.7276" style="stroke:#666666;stroke-width:0.5;"/><text fill="#000000" font-family="Arial" font-size="11" lengthAdjust="spacing" textLength="132" x="208.6382" y="1845.2211">Unlock Achievement Badge</text></g><g id="elem_UC34"><ellipse cx="274.7232" cy="2140.0446" fill="#FFFFFF" rx="93.2232" ry="21.0446" style="stroke:#666666;stroke-width:0.5;"/><text fill="#000000" font-family="Arial" font-size="11" lengthAdjust="spacing" textLength="157" x="196.2232" y="2142.038">View Departmental Leaderboard</text></g><g id="elem_UC35"><ellipse cx="274.3559" cy="2214.7712" fill="#FFFFFF" rx="79.3559" ry="18.2712" style="stroke:#666666;stroke-width:0.5;"/><text fill="#000000" font-family="Arial" font-size="11" lengthAdjust="spacing" textLength="127" x="210.8559" y="2216.7646">View Personal Dashboard</text></g><g id="elem_UC36"><ellipse cx="274.7093" cy="616.2419" fill="#FFFFFF" rx="71.7093" ry="16.7419" style="stroke:#666666;stroke-width:0.5;"/><text fill="#000000" font-family="Arial" font-size="11" lengthAdjust="spacing" textLength="110" x="219.7093" y="618.2353">Manage Users &amp; Roles</text></g><g id="elem_UC37"><ellipse cx="274.3861" cy="771.7772" fill="#FFFFFF" rx="74.3861" ry="17.2772" style="stroke:#666666;stroke-width:0.5;"/><text fill="#000000" font-family="Arial" font-size="11" lengthAdjust="spacing" textLength="116" x="216.3861" y="773.7706">View Platform Analytics</text></g><g id="elem_UC38"><ellipse cx="274.3347" cy="546.8669" fill="#FFFFFF" rx="74.8347" ry="17.3669" style="stroke:#666666;stroke-width:0.5;"/><text fill="#000000" font-family="Arial" font-size="11" lengthAdjust="spacing" textLength="117" x="215.8347" y="548.8603">View Teacher Analytics</text></g><g id="elem_UC39"><ellipse cx="274.4734" cy="687.0947" fill="#FFFFFF" rx="83.4734" ry="19.0947" style="stroke:#666666;stroke-width:0.5;"/><text fill="#000000" font-family="Arial" font-size="11" lengthAdjust="spacing" textLength="136" x="206.4734" y="689.0881">Export Monthly Report (PDF)</text></g><!--entity ST--><g id="elem_ST"><ellipse cx="38" cy="1674" fill="#FFFFFF" rx="8" ry="8" style="stroke:#111111;stroke-width:0.5;"/><path d="M38,1682 L38,1709 M25,1690 L51,1690 M38,1709 L25,1724 M38,1709 L51,1724 " fill="none" style="stroke:#111111;stroke-width:0.5;"/><text fill="#000000" font-family="Arial" font-size="11" lengthAdjust="spacing" textLength="37" x="19.5" y="1735.8179">Student</text></g><!--entity TE--><g id="elem_TE"><ellipse cx="38" cy="109" fill="#FFFFFF" rx="8" ry="8" style="stroke:#111111;stroke-width:0.5;"/><path d="M38,117 L38,144 M25,125 L51,125 M38,144 L25,159 M38,144 L51,159 " fill="none" style="stroke:#111111;stroke-width:0.5;"/><text fill="#000000" font-family="Arial" font-size="11" lengthAdjust="spacing" textLength="40" x="18" y="170.8179">Teacher</text></g><!--entity AD--><g id="elem_AD"><ellipse cx="38" cy="335" fill="#FFFFFF" rx="8" ry="8" style="stroke:#111111;stroke-width:0.5;"/><path d="M38,343 L38,370 M25,351 L51,351 M38,370 L25,385 M38,370 L51,385 " fill="none" style="stroke:#111111;stroke-width:0.5;"/><text fill="#000000" font-family="Arial" font-size="11" lengthAdjust="spacing" textLength="64" x="6" y="396.8179">Administrator</text></g><!--entity EM--><g id="elem_EM"><ellipse cx="38" cy="929.6489" fill="#FFFFFF" rx="8" ry="8" style="stroke:#111111;stroke-width:0.5;"/><path d="M38,937.6489 L38,964.6489 M25,945.6489 L51,945.6489 M38,964.6489 L25,979.6489 M38,964.6489 L51,979.6489 " fill="none" style="stroke:#111111;stroke-width:0.5;"/><text fill="#000000" font-family="Arial" font-size="11" lengthAdjust="spacing" textLength="64" x="6" y="991.4668">Email Service</text><text fill="#000000" font-family="Arial" font-size="11" font-style="italic" lengthAdjust="spacing" textLength="52" x="12" y="918.8179">&#171;external&#187;</text></g><!--entity AI--><g id="elem_AI"><ellipse cx="38" cy="2835.6489" fill="#FFFFFF" rx="8" ry="8" style="stroke:#111111;stroke-width:0.5;"/><path d="M38,2843.6489 L38,2870.6489 M25,2851.6489 L51,2851.6489 M38,2870.6489 L25,2885.6489 M38,2870.6489 L51,2885.6489 " fill="none" style="stroke:#111111;stroke-width:0.5;"/><text fill="#000000" font-family="Arial" font-size="11" lengthAdjust="spacing" textLength="45" x="15.5" y="2897.4668">AI Engine</text><text fill="#000000" font-family="Arial" font-size="11" font-style="italic" lengthAdjust="spacing" textLength="52" x="12" y="2824.8179">&#171;external&#187;</text></g><!--link UC01 to UC02--><g id="link_UC01_UC02"><path d="M230.3,1257.96 C196.27,1262.74 150.8,1262.33 125,1234 C104.77,1211.79 93.27,1212.33 156,1153 C175.14,1134.9 196.3459,1125.2136 219.7059,1118.1636 " fill="none" id="UC01-to-UC02" style="stroke:#444444;stroke-width:1.0;stroke-dasharray:7.0,7.0;"/><polygon fill="#444444" points="225.45,1116.43,215.6781,1115.2009,220.6632,1117.8746,217.9895,1122.8597,225.45,1116.43" style="stroke:#444444;stroke-width:1.0;"/><text fill="#000000" font-family="Arial" font-size="11" lengthAdjust="spacing" textLength="46" x="101" y="1231.3179">&#171;include&#187;</text></g><!--link UC04 to UC02--><g id="link_UC04_UC02"><path d="M274.5,1169.69 C274.5,1156.06 274.5,1141.59 274.5,1127.55 " fill="none" id="UC04-to-UC02" style="stroke:#444444;stroke-width:1.0;stroke-dasharray:7.0,7.0;"/><polygon fill="#444444" points="274.5,1121.55,270.5,1130.55,274.5,1126.55,278.5,1130.55,274.5,1121.55" style="stroke:#444444;stroke-width:1.0;"/><text fill="#000000" font-family="Arial" font-size="11" lengthAdjust="spacing" textLength="46" x="241.5" y="1150.0679">&#171;include&#187;</text></g><!--link UC06 to UC05--><g id="link_UC06_UC05"><path d="M274.5,948.26 C274.5,933.72 274.5,920.07 274.5,905.77 " fill="none" id="UC06-to-UC05" style="stroke:#444444;stroke-width:1.0;stroke-dasharray:7.0,7.0;"/><polygon fill="#444444" points="274.5,899.77,270.5,908.77,274.5,904.77,278.5,908.77,274.5,899.77" style="stroke:#444444;stroke-width:1.0;"/><text fill="#000000" font-family="Arial" font-size="11" lengthAdjust="spacing" textLength="46" x="241.5" y="928.3179">&#171;include&#187;</text></g><!--link UC07 to UC11--><g id="link_UC07_UC11"><path d="M274.5,128.42 C274.5,114.56 274.5,100.71 274.5,85.79 " fill="none" id="UC07-to-UC11" style="stroke:#444444;stroke-width:1.0;stroke-dasharray:7.0,7.0;"/><polygon fill="#444444" points="274.5,79.79,270.5,88.79,274.5,84.79,278.5,88.79,274.5,79.79" style="stroke:#444444;stroke-width:1.0;"/><text fill="#000000" font-family="Arial" font-size="11" lengthAdjust="spacing" textLength="46" x="241.5" y="108.3179">&#171;include&#187;</text></g><!--link UC10 to UC11--><g id="link_UC10_UC11"><path d="M206.17,448.11 C176.86,448.36 144.86,442.4 125,420 C79.21,368.37 115.29,166.72 156,111 C169.06,93.13 184.006,83.4635 204.346,75.6835 " fill="none" id="UC10-to-UC11" style="stroke:#444444;stroke-width:1.0;stroke-dasharray:7.0,7.0;"/><polygon fill="#444444" points="209.95,73.54,200.1149,73.0193,205.28,75.3263,202.973,80.4913,209.95,73.54" style="stroke:#444444;stroke-width:1.0;"/><text fill="#000000" font-family="Arial" font-size="11" lengthAdjust="spacing" textLength="46" x="101" y="417.3179">&#171;include&#187;</text></g><!--link UC08 to UC09--><g id="link_UC08_UC09"><path d="M274.5,279.77 C274.5,265.49 274.5,251.74 274.5,237.62 " fill="none" id="UC08-to-UC09" style="stroke:#444444;stroke-width:1.0;stroke-dasharray:7.0,7.0;"/><polygon fill="#444444" points="274.5,231.62,270.5,240.62,274.5,236.62,278.5,240.62,274.5,231.62" style="stroke:#444444;stroke-width:1.0;"/><text fill="#000000" font-family="Arial" font-size="11" lengthAdjust="spacing" textLength="45" x="242" y="260.0679">&#171;extend&#187;</text></g><!--link UC13 to UC14--><g id="link_UC13_UC14"><path d="M274.5,1494.74 C274.5,1479.72 274.5,1465.89 274.5,1452.16 " fill="none" id="UC13-to-UC14" style="stroke:#444444;stroke-width:1.0;stroke-dasharray:7.0,7.0;"/><polygon fill="#444444" points="274.5,1446.16,270.5,1455.16,274.5,1451.16,278.5,1455.16,274.5,1446.16" style="stroke:#444444;stroke-width:1.0;"/><text fill="#000000" font-family="Arial" font-size="11" lengthAdjust="spacing" textLength="45" x="242" y="1474.8179">&#171;extend&#187;</text></g><!--link UC13 to UC15--><g id="link_UC13_UC15"><path d="M195.42,1524.1 C169.38,1522.31 142.72,1514.82 125.5,1495 C114.58,1482.43 107.7,1444.21 156,1397 C168.34,1384.93 178.8044,1378.5316 195.1444,1372.6516 " fill="none" id="UC13-to-UC15" style="stroke:#444444;stroke-width:1.0;stroke-dasharray:7.0,7.0;"/><polygon fill="#444444" points="200.79,1370.62,190.9672,1369.9036,196.0853,1372.313,193.676,1377.4311,200.79,1370.62" style="stroke:#444444;stroke-width:1.0;"/><text fill="#000000" font-family="Arial" font-size="11" lengthAdjust="spacing" textLength="45" x="101.5" y="1492.3179">&#171;extend&#187;</text></g><!--link UC17 to UC18--><g id="link_UC17_UC18"><path d="M274.5,2854.19 C274.5,2839.83 274.5,2825.77 274.5,2811.5 " fill="none" id="UC17-to-UC18" style="stroke:#444444;stroke-width:1.0;stroke-dasharray:7.0,7.0;"/><polygon fill="#444444" points="274.5,2805.5,270.5,2814.5,274.5,2810.5,278.5,2814.5,274.5,2805.5" style="stroke:#444444;stroke-width:1.0;"/><text fill="#000000" font-family="Arial" font-size="11" lengthAdjust="spacing" textLength="46" x="241.5" y="2834.3179">&#171;include&#187;</text></g><!--link UC18 to UC19--><g id="link_UC18_UC19"><path d="M274.5,2770.19 C274.5,2755.83 274.5,2741.77 274.5,2727.5 " fill="none" id="UC18-to-UC19" style="stroke:#444444;stroke-width:1.0;stroke-dasharray:7.0,7.0;"/><polygon fill="#444444" points="274.5,2721.5,270.5,2730.5,274.5,2726.5,278.5,2730.5,274.5,2721.5" style="stroke:#444444;stroke-width:1.0;"/><text fill="#000000" font-family="Arial" font-size="11" lengthAdjust="spacing" textLength="45" x="242" y="2750.3179">&#171;extend&#187;</text></g><!--link UC24 to UC23--><g id="link_UC24_UC23"><path d="M274.5,3001.63 C274.5,2987.53 274.5,2973.36 274.5,2959.75 " fill="none" id="UC24-to-UC23" style="stroke:#444444;stroke-width:1.0;stroke-dasharray:7.0,7.0;"/><polygon fill="#444444" points="274.5,2953.75,270.5,2962.75,274.5,2958.75,278.5,2962.75,274.5,2953.75" style="stroke:#444444;stroke-width:1.0;"/><text fill="#000000" font-family="Arial" font-size="11" lengthAdjust="spacing" textLength="46" x="241.5" y="2982.0679">&#171;include&#187;</text></g><!--link UC25 to UC26--><g id="link_UC25_UC26"><path d="M274.5,2610.36 C274.5,2595.67 274.5,2582.06 274.5,2567.61 " fill="none" id="UC25-to-UC26" style="stroke:#444444;stroke-width:1.0;stroke-dasharray:7.0,7.0;"/><polygon fill="#444444" points="274.5,2561.61,270.5,2570.61,274.5,2566.61,278.5,2570.61,274.5,2561.61" style="stroke:#444444;stroke-width:1.0;"/><text fill="#000000" font-family="Arial" font-size="11" lengthAdjust="spacing" textLength="45" x="242" y="2590.3179">&#171;extend&#187;</text></g><!--link UC27 to UC30--><g id="link_UC27_UC30"><path d="M216.86,1781.51 C196.32,1786.53 173.88,1794.47 156,1807 C137.11,1820.24 132.63,1827.06 125.5,1849 C97.82,1934.21 100.4,2180.75 156,2251 C166.26,2263.96 175.3353,2270.5085 190.9153,2276.2085 " fill="none" id="UC27-to-UC30" style="stroke:#444444;stroke-width:1.0;stroke-dasharray:7.0,7.0;"/><polygon fill="#444444" points="196.55,2278.27,189.4722,2271.4213,191.8544,2276.5521,186.7236,2278.9343,196.55,2278.27" style="stroke:#444444;stroke-width:1.0;"/><text fill="#000000" font-family="Arial" font-size="11" lengthAdjust="spacing" textLength="45" x="101.5" y="1860.3179">&#171;extend&#187;</text></g><!--link UC32 to UC33--><g id="link_UC32_UC33"><path d="M274.5,1910.39 C274.5,1896.58 274.5,1882.41 274.5,1867.74 " fill="none" id="UC32-to-UC33" style="stroke:#444444;stroke-width:1.0;stroke-dasharray:7.0,7.0;"/><polygon fill="#444444" points="274.5,1861.74,270.5,1870.74,274.5,1866.74,278.5,1870.74,274.5,1861.74" style="stroke:#444444;stroke-width:1.0;"/><text fill="#000000" font-family="Arial" font-size="11" lengthAdjust="spacing" textLength="45" x="242" y="1890.3179">&#171;extend&#187;</text></g><!--link UC37 to UC39--><g id="link_UC37_UC39"><path d="M274.5,754.39 C274.5,740.29 274.5,726.54 274.5,712.07 " fill="none" id="UC37-to-UC39" style="stroke:#444444;stroke-width:1.0;stroke-dasharray:7.0,7.0;"/><polygon fill="#444444" points="274.5,706.07,270.5,715.07,274.5,711.07,278.5,715.07,274.5,706.07" style="stroke:#444444;stroke-width:1.0;"/><text fill="#000000" font-family="Arial" font-size="11" lengthAdjust="spacing" textLength="45" x="242" y="734.5679">&#171;extend&#187;</text></g><!--link ST to UC01--><g id="link_ST_UC01"><path d="M40.31,1665.41 C44.87,1548.42 61.9,1189.09 100,1155 C115.9,1140.78 131.96,1140.93 148,1155 C168.55,1173.03 138.02,1195.4 156,1216 C170.74,1232.88 187.5226,1240.1651 209.0326,1244.1951 " fill="none" id="ST-to-UC01" style="stroke:#444444;stroke-width:1.0;"/><polygon fill="#444444" points="214.93,1245.3,206.8205,1239.7111,210.0155,1244.3792,205.3473,1247.5742,214.93,1245.3" style="stroke:#444444;stroke-width:1.0;"/></g><!--link ST to UC03--><g id="link_ST_UC03"><path d="M40.38,1665.27 C45.4,1540.33 64.23,1136.99 100,1092 C125.58,1059.83 164.2156,1047.4948 201.7856,1042.3448 " fill="none" id="ST-to-UC03" style="stroke:#444444;stroke-width:1.0;"/><polygon fill="#444444" points="207.73,1041.53,198.2702,1038.7893,202.7763,1042.209,199.3566,1046.7152,207.73,1041.53" style="stroke:#444444;stroke-width:1.0;"/></g><!--link ST to UC04--><g id="link_ST_UC04"><path d="M40.07,1665.42 C44,1543.93 59.57,1159.39 100,1123 C115.86,1108.73 129.85,1111.78 148,1123 C154.76,1127.18 150.11,1133.66 156,1139 C176.23,1157.34 198.9384,1166.8959 222.7984,1173.5159 " fill="none" id="ST-to-UC04" style="stroke:#444444;stroke-width:1.0;"/><polygon fill="#444444" points="228.58,1175.12,220.977,1168.8594,223.762,1173.7832,218.8382,1176.5682,228.58,1175.12" style="stroke:#444444;stroke-width:1.0;"/></g><!--link ST to UC10--><g id="link_ST_UC10"><path d="M40.64,1665.16 C50.06,1453.43 97.05,400.81 100,398 C115.43,383.27 127.24,393.1 148,398 C151.87,398.91 152.31,400.52 156,402 C176.9,410.36 194.7725,416.2514 215.3325,422.2814 " fill="none" id="ST-to-UC10" style="stroke:#444444;stroke-width:1.0;"/><polygon fill="#444444" points="221.09,423.97,213.5795,417.5988,216.2921,422.5628,211.328,425.2754,221.09,423.97" style="stroke:#444444;stroke-width:1.0;"/></g><!--link ST to UC13--><g id="link_ST_UC13"><path d="M40.59,1665.2 C45.82,1552.65 64.24,1218.77 100,1187 C115.95,1172.83 132.7,1172.13 148,1187 C159.04,1197.73 147.42,1451.22 156,1464 C168.44,1482.52 183.4742,1492.3876 204.0242,1500.1176 " fill="none" id="ST-to-UC13" style="stroke:#444444;stroke-width:1.0;"/><polygon fill="#444444" points="209.64,1502.23,202.6245,1495.3175,204.9601,1500.4696,199.808,1502.8052,209.64,1502.23" style="stroke:#444444;stroke-width:1.0;"/></g><!--link ST to UC16--><g id="link_ST_UC16"><path d="M40.89,1665.21 C46.8,1557.49 66.56,1248.48 100,1219 C116,1204.89 132.74,1204.1 148,1219 C161.36,1232.04 144.72,1540.12 156,1555 C166.44,1568.77 176.3407,1575.5545 192.7807,1580.9645 " fill="none" id="ST-to-UC16" style="stroke:#444444;stroke-width:1.0;"/><polygon fill="#444444" points="198.48,1582.84,191.1813,1576.2272,193.7306,1581.2771,188.6807,1583.8263,198.48,1582.84" style="stroke:#444444;stroke-width:1.0;"/></g><!--link ST to UC17--><g id="link_ST_UC17"><path d="M38.56,1738.55 C37.74,1859.17 40.11,2255.04 100,2575 C113.27,2645.89 134.16,2659.22 148,2730 C151.98,2750.36 143.77,2806.25 156,2823 C170.08,2842.28 187.481,2852.164 209.501,2859.284 " fill="none" id="ST-to-UC17" style="stroke:#444444;stroke-width:1.0;"/><polygon fill="#444444" points="215.21,2861.13,207.8772,2854.5551,210.4525,2859.5917,205.4159,2862.1671,215.21,2861.13" style="stroke:#444444;stroke-width:1.0;"/></g><!--link ST to UC20--><g id="link_ST_UC20"><path d="M39.23,1738.75 C40.6,1912.41 49.33,2651.66 100,2876 C112.29,2930.42 133.52,2938.12 148,2992 C151.49,3004.99 147.26,3041.77 156,3052 C168.03,3066.08 179.6883,3072.956 197.4483,3078.116 " fill="none" id="ST-to-UC20" style="stroke:#444444;stroke-width:1.0;"/><polygon fill="#444444" points="203.21,3079.79,195.6834,3073.4378,198.4085,3078.395,193.4514,3081.1201,203.21,3079.79" style="stroke:#444444;stroke-width:1.0;"/></g><!--link ST to UC21--><g id="link_ST_UC21"><path d="M41.34,1738.65 C49.66,1858.19 81.36,2234.33 156,2326 C177.24,2352.09 204.6776,2369.2885 230.2376,2381.9985 " fill="none" id="ST-to-UC21" style="stroke:#444444;stroke-width:1.0;"/><polygon fill="#444444" points="235.61,2384.67,229.3323,2377.0811,231.133,2382.4437,225.7703,2384.2444,235.61,2384.67" style="stroke:#444444;stroke-width:1.0;"/></g><!--link ST to UC22--><g id="link_ST_UC22"><path d="M38.34,1738.54 C37.49,1835.11 41.03,2104.34 100,2318 C115.55,2374.35 111.53,2399.06 156,2437 C171.59,2450.3 186.303,2456.9294 205.843,2461.8694 " fill="none" id="ST-to-UC22" style="stroke:#444444;stroke-width:1.0;"/><polygon fill="#444444" points="211.66,2463.34,203.9149,2457.2561,206.8125,2462.1145,201.9541,2465.0121,211.66,2463.34" style="stroke:#444444;stroke-width:1.0;"/></g><!--link ST to UC23--><g id="link_ST_UC23"><path d="M39.82,1738.7 C43.58,1898.89 60.81,2537.53 100,2734 C112.7,2797.68 130.07,2809.59 148,2872 C152.41,2887.34 144.95,2895.49 156,2907 C171.59,2923.25 188.6472,2930.3808 210.1472,2934.5008 " fill="none" id="ST-to-UC23" style="stroke:#444444;stroke-width:1.0;"/><polygon fill="#444444" points="216.04,2935.63,207.9536,2930.0076,211.1293,2934.689,206.448,2937.8647,216.04,2935.63" style="stroke:#444444;stroke-width:1.0;"/></g><!--link ST to UC25--><g id="link_ST_UC25"><path d="M38.32,1738.86 C37.13,1847.3 39.21,2174.12 100,2436 C115.43,2502.49 108.79,2529.7 156,2579 C171.97,2595.68 188.6288,2605.2192 209.4888,2613.2292 " fill="none" id="ST-to-UC25" style="stroke:#444444;stroke-width:1.0;"/><polygon fill="#444444" points="215.09,2615.38,208.122,2608.4196,210.4223,2613.5877,205.2542,2615.8879,215.09,2615.38" style="stroke:#444444;stroke-width:1.0;"/></g><!--link ST to UC27--><g id="link_ST_UC27"><path d="M40.26,1665.35 C44.76,1568.13 64.58,1316.51 148,1398 C161.56,1411.24 144.44,1723.99 156,1739 C168.7,1755.49 183.0431,1762.9932 203.1431,1767.6232 " fill="none" id="ST-to-UC27" style="stroke:#444444;stroke-width:1.0;"/><polygon fill="#444444" points="208.99,1768.97,201.1176,1763.0518,204.1176,1767.8476,199.3218,1770.8477,208.99,1768.97" style="stroke:#444444;stroke-width:1.0;"/></g><!--link ST to UC28--><g id="link_ST_UC28"><path d="M43.7,1665.26 C54.93,1587.89 87,1420.01 148,1480 C166.98,1498.66 139.83,1937.86 156,1959 C168.06,1974.77 181.1699,1982.1019 200.3299,1986.9019 " fill="none" id="ST-to-UC28" style="stroke:#444444;stroke-width:1.0;"/><polygon fill="#444444" points="206.15,1988.36,198.3918,1982.2928,201.2999,1987.1449,196.4477,1990.053,206.15,1988.36" style="stroke:#444444;stroke-width:1.0;"/></g><!--link ST to UC29--><g id="link_ST_UC29"><path d="M41.79,1738.61 C48.85,1805.43 73.28,1947.56 156,2027 C168.96,2039.44 180.346,2045.8698 197.486,2051.3598 " fill="none" id="ST-to-UC29" style="stroke:#444444;stroke-width:1.0;"/><polygon fill="#444444" points="203.2,2053.19,195.8491,2046.6353,198.4383,2051.6648,193.4088,2054.254,203.2,2053.19" style="stroke:#444444;stroke-width:1.0;"/></g><!--link ST to UC32--><g id="link_ST_UC32"><path d="M41.73,1665.43 C49.49,1577.82 75.97,1368.27 148,1439 C165.44,1456.13 142.11,1858.88 156,1879 C170.42,1899.88 189.9547,1909.8994 213.4147,1916.3494 " fill="none" id="ST-to-UC32" style="stroke:#444444;stroke-width:1.0;"/><polygon fill="#444444" points="219.2,1917.94,211.5824,1911.6972,214.3789,1916.6145,209.4616,1919.411,219.2,1917.94" style="stroke:#444444;stroke-width:1.0;"/></g><!--link ST to UC34--><g id="link_ST_UC34"><path d="M41.03,1738.84 C45.47,1799.77 59.18,1924.4 100,2021 C116.89,2060.98 121.2,2075.07 156,2101 C170.65,2111.91 182.8369,2117.9856 200.1769,2123.7556 " fill="none" id="ST-to-UC34" style="stroke:#444444;stroke-width:1.0;"/><polygon fill="#444444" points="205.87,2125.65,198.5933,2119.013,201.1258,2124.0713,196.0674,2126.6038,205.87,2125.65" style="stroke:#444444;stroke-width:1.0;"/></g><!--link ST to UC35--><g id="link_ST_UC35"><path d="M38.97,1738.72 C40.11,1810.89 48.67,1975.12 100,2101 C116.11,2140.52 121.33,2154.11 156,2179 C172.12,2190.57 186.2617,2196.8388 205.0917,2202.2288 " fill="none" id="ST-to-UC35" style="stroke:#444444;stroke-width:1.0;"/><polygon fill="#444444" points="210.86,2203.88,203.3083,2197.5577,206.0531,2202.504,201.1067,2205.2488,210.86,2203.88" style="stroke:#444444;stroke-width:1.0;"/></g><!--link TE to UC03--><g id="link_TE_UC03"><path d="M45.74,173.55 C52.12,208.35 61.9,262.21 70,309 C106.11,517.64 126.88,568.31 148,779 C149.25,791.5 148.27,995.09 156,1005 C168.8,1021.41 183.1747,1028.8864 203.2547,1033.5364 " fill="none" id="TE-to-UC03" style="stroke:#444444;stroke-width:1.0;"/><polygon fill="#444444" points="209.1,1034.89,201.2344,1028.9627,204.2289,1033.762,199.4296,1036.7564,209.1,1034.89" style="stroke:#444444;stroke-width:1.0;"/></g><!--link TE to UC05--><g id="link_TE_UC05"><path d="M58.19,166.29 C84.36,208.11 130.04,288.28 148,364 C153.67,387.9 144,784.57 156,806 C171.9,834.4 198.0579,851.1992 224.4979,863.0892 " fill="none" id="TE-to-UC05" style="stroke:#444444;stroke-width:1.0;"/><polygon fill="#444444" points="229.97,865.55,223.4023,858.2107,225.4099,863.4993,220.1212,865.5069,229.97,865.55" style="stroke:#444444;stroke-width:1.0;"/></g><!--link TE to UC07--><g id="link_TE_UC07"><path d="M58.12,110.22 C68.83,97.59 83.37,83.81 100,77 C119.74,68.92 130.33,65.04 148,77 C155.93,82.37 149.26,90.21 156,97 C173.85,114.98 193.6622,124.6814 216.3622,131.9014 " fill="none" id="TE-to-UC07" style="stroke:#444444;stroke-width:1.0;"/><polygon fill="#444444" points="222.08,133.72,214.7158,127.1803,217.3152,132.2045,212.291,134.8039,222.08,133.72" style="stroke:#444444;stroke-width:1.0;"/></g><!--link TE to UC08--><g id="link_TE_UC08"><path d="M58.31,125.12 C82.53,111.91 123.8,95.23 148,118 C169.24,137.98 139.09,225.23 156,249 C169.52,268 186.1545,277.7729 207.7345,284.9229 " fill="none" id="TE-to-UC08" style="stroke:#444444;stroke-width:1.0;"/><polygon fill="#444444" points="213.43,286.81,206.1448,280.1824,208.6837,285.2374,203.6287,287.7764,213.43,286.81" style="stroke:#444444;stroke-width:1.0;"/></g><!--link TE to UC38--><g id="link_TE_UC38"><path d="M58.29,147.41 C84.14,162.58 128.96,193.41 148,234 C159.28,258.06 142.77,449.96 156,473 C172.5,501.75 199.6685,518.5655 226.3885,530.1955 " fill="none" id="TE-to-UC38" style="stroke:#444444;stroke-width:1.0;"/><polygon fill="#444444" points="231.89,532.59,225.2342,525.3305,227.3054,530.5946,222.0414,532.6658,231.89,532.59" style="stroke:#444444;stroke-width:1.0;"/></g><!--link AD to UC03--><g id="link_AD_UC03"><path d="M46.46,399.84 C68.41,508.57 132.23,827.07 148,932 C150.43,948.14 145.5,992.51 156,1005 C169.39,1020.93 183.9087,1028.2693 203.9387,1032.9693 " fill="none" id="AD-to-UC03" style="stroke:#444444;stroke-width:1.0;"/><polygon fill="#444444" points="209.78,1034.34,201.9318,1028.3898,204.9122,1033.1978,200.1042,1036.1782,209.78,1034.34" style="stroke:#444444;stroke-width:1.0;"/></g><!--link AD to UC06--><g id="link_AD_UC06"><path d="M70.12,365.73 C95.7,369.79 130.47,379.89 148,405 C164.28,428.33 140.21,893.34 156,917 C168.47,935.68 183.7504,945.5117 204.5104,953.0517 " fill="none" id="AD-to-UC06" style="stroke:#444444;stroke-width:1.0;"/><polygon fill="#444444" points="210.15,955.1,203.0562,948.2679,205.4504,953.3931,200.3252,955.7873,210.15,955.1" style="stroke:#444444;stroke-width:1.0;"/></g><!--link AD to UC12--><g id="link_AD_UC12"><path d="M41.15,326.27 C45.62,287.55 59.16,228.32 100,200 C117.53,187.84 132.47,185.37 148,200 C169.56,220.3 137.6,309.8 156,333 C168.77,349.09 182.7755,356.5793 202.5455,361.4693 " fill="none" id="AD-to-UC12" style="stroke:#444444;stroke-width:1.0;"/><polygon fill="#444444" points="208.37,362.91,200.5937,356.866,203.5163,361.7095,198.6729,364.632,208.37,362.91" style="stroke:#444444;stroke-width:1.0;"/></g><!--link AD to UC31--><g id="link_AD_UC31"><path d="M42.16,399.51 C50.13,489.63 72.4,729.78 100,929 C117.51,1055.37 136.07,1084.99 148,1212 C150.15,1234.9 144.81,1605.9 156,1626 C171.6,1654.02 196.9094,1670.8202 223.0394,1682.9702 " fill="none" id="AD-to-UC31" style="stroke:#444444;stroke-width:1.0;"/><polygon fill="#444444" points="228.48,1685.5,222.0056,1678.0782,223.9462,1683.3918,218.6326,1685.3324,228.48,1685.5" style="stroke:#444444;stroke-width:1.0;"/></g><!--link AD to UC36--><g id="link_AD_UC36"><path d="M70.38,335.84 C94.39,318.4 126.87,302.51 148,323 C168.67,343.04 138.35,559.25 156,582 C168.11,597.6 181.1133,604.8883 200.1633,609.7083 " fill="none" id="AD-to-UC36" style="stroke:#444444;stroke-width:1.0;"/><polygon fill="#444444" points="205.98,611.18,198.2361,605.0946,201.1327,609.9536,196.2738,612.8502,205.98,611.18" style="stroke:#444444;stroke-width:1.0;"/></g><!--link AD to UC37--><g id="link_AD_UC37"><path d="M70.19,352.88 C94.75,347.07 128.07,344.33 148,364 C162.2,378.01 144.75,706.52 156,723 C169.46,742.71 186.7533,752.698 208.8733,759.748 " fill="none" id="AD-to-UC37" style="stroke:#444444;stroke-width:1.0;"/><polygon fill="#444444" points="214.59,761.57,207.2297,755.0259,209.8261,760.0517,204.8003,762.6481,214.59,761.57" style="stroke:#444444;stroke-width:1.0;"/></g><!--link EM to UC02--><g id="link_EM_UC02"><path d="M70.39,975.21 C94.09,994.75 126.16,1023.99 148,1055 C153.04,1062.16 149.38,1067.27 156,1073 C172.1,1086.93 187.8239,1093.6596 208.0839,1098.3396 " fill="none" id="EM-to-UC02" style="stroke:#444444;stroke-width:1.0;"/><polygon fill="#444444" points="213.93,1099.69,206.0612,1093.767,209.0583,1098.5646,204.2606,1101.5617,213.93,1099.69" style="stroke:#444444;stroke-width:1.0;"/></g><!--link EM to UC05--><g id="link_EM_UC05"><path d="M70.14,941.7 C109.63,929.92 172.4305,911.1657 218.9105,897.2957 " fill="none" id="EM-to-UC05" style="stroke:#444444;stroke-width:1.0;"/><polygon fill="#444444" points="224.66,895.58,214.892,894.3206,219.8688,897.0097,217.1796,901.9865,224.66,895.58" style="stroke:#444444;stroke-width:1.0;"/></g><!--link AI to UC17--><g id="link_AI_UC17"><path d="M64.1,2858.61 C96.65,2860.69 148.8122,2864.0272 195.5822,2867.0172 " fill="none" id="AI-to-UC17" style="stroke:#444444;stroke-width:1.0;"/><polygon fill="#444444" points="201.57,2867.4,192.8435,2862.834,196.5802,2867.081,192.3331,2870.8177,201.57,2867.4" style="stroke:#444444;stroke-width:1.0;"/></g><!--link AI to UC20--><g id="link_AI_UC20"><path d="M53.97,2899.89 C71.63,2944.28 105.16,3012.55 156,3052 C171.47,3064.01 185.2192,3070.293 203.8892,3075.483 " fill="none" id="AI-to-UC20" style="stroke:#444444;stroke-width:1.0;"/><polygon fill="#444444" points="209.67,3077.09,202.0701,3070.8257,204.8527,3075.7508,199.9275,3078.5334,209.67,3077.09" style="stroke:#444444;stroke-width:1.0;"/></g><!--link AI to UC23--><g id="link_AI_UC23"><path d="M64.16,2868.95 C87.59,2879.79 123.66,2895.75 156,2907 C180.46,2915.51 202.6044,2921.7241 225.1044,2927.4341 " fill="none" id="AI-to-UC23" style="stroke:#444444;stroke-width:1.0;"/><polygon fill="#444444" points="230.92,2928.91,223.1804,2922.8191,226.0736,2927.6801,221.2126,2930.5733,230.92,2928.91" style="stroke:#444444;stroke-width:1.0;"/></g><!--link AI to UC25--><g id="link_AI_UC25"><path d="M55.23,2814.29 C73.53,2771.65 107.24,2707.12 156,2669 C170.27,2657.84 182.2255,2651.7696 199.4655,2646.1496 " fill="none" id="AI-to-UC25" style="stroke:#444444;stroke-width:1.0;"/><polygon fill="#444444" points="205.17,2644.29,195.3734,2643.2764,200.4162,2645.8397,197.8529,2650.8824,205.17,2644.29" style="stroke:#444444;stroke-width:1.0;"/></g><!--link AI to UC30--><g id="link_AI_UC30"><path d="M38.95,2814.33 C40.86,2723.51 56.4,2507.81 156,2366 C174.57,2339.56 200.0457,2322.5677 225.4557,2309.7177 " fill="none" id="AI-to-UC30" style="stroke:#444444;stroke-width:1.0;"/><polygon fill="#444444" points="230.81,2307.01,220.9734,2307.502,226.3481,2309.2664,224.5837,2314.6411,230.81,2307.01" style="stroke:#444444;stroke-width:1.0;"/></g><!--SRC=[vLdTRjis5BxNKn0Uq2OOibcIVuSYWEgVr6iTkv6TxMB0m4YqJKGY1KfowWu3-WYxw5wmJx8ZYR98MMslvoW6SknpFegap_UTGpb-f2p20eSev8nxEy53WXAH4YC-Uk8TzlaJPLkqmK6iUdoomMcGJ3bBRZ407K5nqEntwKU2J5DnEaBmfn4Fk40_TF9BTNe95w-vy8cG8MP-dOHWxt4hUCfy6JRDBoLi7HCFnqGRgvTV3K7V7Mq94NYhZpRChuQWaz7wsTzfOBu_oI4Ww847_bVy-VvPXX6GJO8IZWJTxXBaKq6yX79c62_Hby-Vu5LiJ2pV_LzU1ivcZLfkalg49IrKNZX6xghqhWZsTaHetjMaz3f-I1cD4u7XRQlmEkFIEman3P1Bn9vwH7edS_Jg5VcG4C5mS7rz76Y69cnB6MbLju7FjD1il__zvsnUi9obCthht4oGYRvy-eoSDDd15q4zdAKNUe4Mx85ZuOCEdDlIeu9cyBr_VSsjB0UMRs_-TDQhD-Wl0w6qq0pKkYDRI3eYW7WUi5t9NPawwr7RL07tHD3D0HK9kQSOBLRBLWrWgO1t798H_OpWFqyJTF7hRwlBEi3MfnIJ1EGZZfz0gVG9bO2E2W3De7kS42GPfg-b07HLm2oCk4YEuNSytu6BaNkVpQm0z0n0P8j7FrtdQqA_08SeymBWE50eTtQ-vUn9PxVc_FkCwMVbz1lnLC0-lm239O8-f7b6pZ63H0qXHy-MWzzR-968eyNwpfteL5n70SS-Mcmsr8DMHEvYIq_yleee1Ywt6vWPm-tY6cAW8bv3srA5eZV0VIuEDSHGHRZfGqWJ94kRjh1MYJ3RAcAq8zuZcb9e2SPf56I2HD25-yQvihgzorQ1q3Hbpg4XoQBgeokpojg7d5PzLF3AD1j8PxQ_vMqFfBSzpBrPHMJ-cLFIpYdf4Yoy7MJccCOUtnDnE5iIdYxrI3jtujoDQXLGXXSaYlzW5ou9SLP7qOzecWR1rGhIvB8bir2hL4uK1GSqnHv9Y9zbF9IHk5wmZWcirQob87jAdj2OUscc3EXYEPwYU_Y82AKyIcYtWSEEXtqImZGTc3xTaxYnKfgoZfcsv4L7ptpDrtq-hEWKVU8i5xO3Md4UnEVR6chBhBh1cSw4HKGOkdDkq6Y7GV5976ioN6QKLeAS-B7AuVSfYPD6Z5Q4Rl6URZEvXvEW2xJp27HxMr8N_A6XWcu8Ash4DC3npeF65esXpjH0Lbll97EE7H4nbA7vbNMfrpjBgqNk3eklt-I8iPed1rlwFgKVMuqAO6dYiSAF14q-m4dPfM4QuFh6IKod-KPk6ePO743bvfJvq694IhThQNen-P1tkoK2peWwH69AeUXBCHWqbTU1T0vFLSIIpR1bDm2jhdJsde_4T6Kl78OfeqdsLTtWa6xa0UsCU-3c1Ikzxtok2yyI3c1eoaKQDab8aPvzdTXPuNs1xZbG0VhOR81QtsjfakCmnfECDrcL7V4Wm0ySU0HbCpZ8qcuDzJju1BmPeHqMGr46_cotvTnoW5tJcfnbCuQZIF18qBAVBTj-09WQboTOCFJx4fRnZi0yq3ewqKrREqclMS2XitQWt0CWLzpNs2-5im1e4dEVTnWamYB9ek5CyOv0qo3ovm958svtJW1BQ68uW-0nQ60HgawfM-Y49NN2RfzAWMr9d_rysDuh6ehgATuvSrnVPjLGZEUpMvtQyeYwZY6f8DFlU41gHBLxfna8rN33HGZKmy41Ml5OJV7-IVpnkOyUBkC73SLm3iJSWOH8rcRDTzdYsyCYmUqomP_1MT4PhHPto77TnMZch6QBM_VSrWZhaOym37U5hgwkYmURbMqhTgUopRPYAp5mhghiVcLRIhobZ0yDOsKhuq2hLjdgE0F57bQshOnZA_FCPFbbIGHZDQcMLTbTnUuhzg2oWInPEgY_HHZEk1giidkLRLgL3JMkifKOO2qCF94_GUHQgVscOKpcvSYMOdTFKCUVDmomZlj_j67_AzjMx6vbG-7-3m00]--></g></svg>