<svg xmlns="http://www.w3.org/2000/svg" viewBox="0 0 180 180" width="180" height="180">
  <defs>
    <linearGradient id="bg" x1="0%" y1="0%" x2="100%" y2="100%">
      <stop offset="0%" style="stop-color:#1B3A6B"/>
      <stop offset="100%" style="stop-color:#0F172A"/>
    </linearGradient>
  </defs>
  <rect width="180" height="180" rx="32" fill="url(#bg)"/>
  <g fill="#ffffff">
    <path d="M90 42c-3.1 0-5.6 2.5-5.6 5.6v5.6h-11.2c-3.1 0-5.6 2.5-5.6 5.6v56c0 3.1 2.5 5.6 5.6 5.6h11.2v5.6c0 3.1 2.5 5.6 5.6 5.6s5.6-2.5 5.6-5.6v-5.6h11.2c3.1 0 5.6-2.5 5.6-5.6v-56c0-3.1-2.5-5.6-5.6-5.6h-11.2v-5.6c0-3.1-2.5-5.6-5.6-5.6zm-5.6 11.2v11.2h11.2v56h-11.2v11.2h11.2c3.1 0 5.6-2.5 5.6-5.6v-56c0-3.1-2.5-5.6-5.6-5.6h-11.2z"/>
    <path d="M135 70.4c-3.1 0-5.6 2.5-5.6 5.6v28c0 3.1 2.5 5.6 5.6 5.6h5.6c3.1 0 5.6-2.5 5.6-5.6v-28c0-3.1-2.5-5.6-5.6-5.6h-5.6zm5.6 33.6h-5.6v-28h5.6v28z"/>
  </g>
</svg>
