<svg xmlns="http://www.w3.org/2000/svg" viewBox="0 0 512 512" width="512" height="512">
  <defs>
    <linearGradient id="bg" x1="0%" y1="0%" x2="100%" y2="100%">
      <stop offset="0%" style="stop-color:#1B3A6B"/>
      <stop offset="100%" style="stop-color:#0F172A"/>
    </linearGradient>
  </defs>
  <rect width="512" height="512" rx="96" fill="url(#bg)"/>
  <g fill="#ffffff">
    <path d="M256 120c-8.8 0-16 7.2-16 16v16h-32c-8.8 0-16 7.2-16 16v160c0 8.8 7.2 16 16 16h32v16c0 8.8 7.2 16 16 16s16-7.2 16-16v-16h32c8.8 0 16-7.2 16-16V168c0-8.8-7.2-16-16-16h-32v-16c0-8.8-7.2-16-16-16zm-16 32v32h32v160h-32v32h32c8.8 0 16-7.2 16-16V168c0-8.8-7.2-16-16-16h-32z"/>
    <path d="M384 200c-8.8 0-16 7.2-16 16v80c0 8.8 7.2 16 16 16h16c8.8 0 16-7.2 16-16V216c0-8.8-7.2-16-16-16h-16zm16 96h-16v-80h16v80z"/>
  </g>
</svg>
